<svg xmlns="http://www.w3.org/2000/svg" width="24" height="24" fill="none"  xmlns:v="https://vecta.io/nano"><path d="M21.6 11.352V21.6a2.4 2.4 0 0 1-2.4 2.4h-3.6a2.4 2.4 0 0 1-2.4-2.4v-4.8h-2.4v4.8A2.4 2.4 0 0 1 8.4 24H4.8a2.4 2.4 0 0 1-2.4-2.4V11.352A4.8 4.8 0 0 1 0 7.2V6a1.2 1.2 0 0 1 .12-.54l2.4-4.8a1.2 1.2 0 0 1 .446-.484A1.2 1.2 0 0 1 3.6 0h16.8a1.2 1.2 0 0 1 1.08.66l2.4 4.8c.072.168.12.36.12.54v1.2a4.8 4.8 0 0 1-2.4 4.152zM19.2 12a4.77 4.77 0 0 1-3.6-1.62 4.79 4.79 0 0 1-1.624 1.204c-.621.281-1.295.427-1.976.427s-1.355-.146-1.976-.427A4.79 4.79 0 0 1 8.4 10.38a4.79 4.79 0 0 1-1.625 1.198c-.621.279-1.294.423-1.975.422v9.6h3.6v-4.8a2.41 2.41 0 0 1 2.4-2.4h2.4a2.4 2.4 0 0 1 2.4 2.4v4.8h3.6V12zm2.4-4.8h-4.8a2.4 2.4 0 0 0 2.4 2.4 2.4 2.4 0 0 0 2.4-2.4zm-7.2 0H9.6A2.4 2.4 0 0 0 12 9.6a2.4 2.4 0 0 0 2.4-2.4zm-7.2 0H2.4a2.4 2.4 0 0 0 2.4 2.4 2.4 2.4 0 0 0 2.4-2.4zm13.656-2.4l-1.2-2.4H4.344l-1.2 2.4h17.712z" fill="#fff"/></svg>