<svg xmlns="http://www.w3.org/2000/svg" width="24" height="24" fill="none"  xmlns:v="https://vecta.io/nano"><path d="M12 24A12 12 0 0 1 0 12 12 12 0 0 1 12 0a12 12 0 0 1 12 12 12 12 0 0 1-12 12zm0-2.4a9.6 9.6 0 0 0 9.6-9.6A9.6 9.6 0 0 0 12 2.4 9.6 9.6 0 0 0 2.4 12a9.6 9.6 0 0 0 9.6 9.6zm-4.248-5.352c-.226-.226-.353-.532-.353-.852s.127-.626.353-.852.532-.353.852-.353.626.127.852.353a3.6 3.6 0 0 0 5.088 0c.226-.226.532-.353.852-.353s.626.127.852.353.353.532.353.852-.127.626-.353.852A6 6 0 0 1 12 18.011a6 6 0 0 1-4.248-1.763zM8.4 10.8a1.2 1.2 0 0 1-1.2-1.2 1.2 1.2 0 0 1 1.2-1.2 1.2 1.2 0 0 1 1.2 1.2 1.2 1.2 0 0 1-1.2 1.2zm7.2 0a1.2 1.2 0 0 1-1.2-1.2 1.2 1.2 0 0 1 1.2-1.2 1.2 1.2 0 0 1 1.2 1.2 1.2 1.2 0 0 1-1.2 1.2z" fill="#fff"/></svg>