<svg width="24" height="24" viewBox="0 0 24 24" fill="none" xmlns="http://www.w3.org/2000/svg">
<path d="M12 24C8.8174 24 5.76516 22.7357 3.51472 20.4853C1.26428 18.2348 0 15.1826 0 12C0 8.8174 1.26428 5.76516 3.51472 3.51472C5.76516 1.26428 8.8174 0 12 0C15.1826 0 18.2348 1.26428 20.4853 3.51472C22.7357 5.76516 24 8.8174 24 12C24 15.1826 22.7357 18.2348 20.4853 20.4853C18.2348 22.7357 15.1826 24 12 24ZM12 21.6C14.5461 21.6 16.9879 20.5886 18.7882 18.7882C20.5886 16.9879 21.6 14.5461 21.6 12C21.6 9.45392 20.5886 7.01212 18.7882 5.21178C16.9879 3.41143 14.5461 2.4 12 2.4C9.45392 2.4 7.01212 3.41143 5.21178 5.21178C3.41143 7.01212 2.4 9.45392 2.4 12C2.4 14.5461 3.41143 16.9879 5.21178 18.7882C7.01212 20.5886 9.45392 21.6 12 21.6ZM7.752 16.248C7.52604 16.022 7.39909 15.7156 7.39909 15.396C7.39909 15.0764 7.52604 14.77 7.752 14.544C7.97796 14.318 8.28444 14.1911 8.604 14.1911C8.92356 14.1911 9.23004 14.318 9.456 14.544C10.131 15.2182 11.046 15.5968 12 15.5968C12.954 15.5968 13.869 15.2182 14.544 14.544C14.77 14.318 15.0764 14.1911 15.396 14.1911C15.7156 14.1911 16.022 14.318 16.248 14.544C16.474 14.77 16.6009 15.0764 16.6009 15.396C16.6009 15.7156 16.474 16.022 16.248 16.248C15.6907 16.8068 15.0285 17.2501 14.2996 17.5526C13.5707 17.855 12.7892 18.0107 12 18.0107C11.2108 18.0107 10.4293 17.855 9.7004 17.5526C8.97146 17.2501 8.30935 16.8068 7.752 16.248ZM8.4 10.8C8.08174 10.8 7.77652 10.6736 7.55147 10.4485C7.32643 10.2235 7.2 9.91826 7.2 9.6C7.2 9.28174 7.32643 8.97652 7.55147 8.75147C7.77652 8.52643 8.08174 8.4 8.4 8.4C8.71826 8.4 9.02348 8.52643 9.24853 8.75147C9.47357 8.97652 9.6 9.28174 9.6 9.6C9.6 9.91826 9.47357 10.2235 9.24853 10.4485C9.02348 10.6736 8.71826 10.8 8.4 10.8ZM15.6 10.8C15.2817 10.8 14.9765 10.6736 14.7515 10.4485C14.5264 10.2235 14.4 9.91826 14.4 9.6C14.4 9.28174 14.5264 8.97652 14.7515 8.75147C14.9765 8.52643 15.2817 8.4 15.6 8.4C15.9183 8.4 16.2235 8.52643 16.4485 8.75147C16.6736 8.97652 16.8 9.28174 16.8 9.6C16.8 9.91826 16.6736 10.2235 16.4485 10.4485C16.2235 10.6736 15.9183 10.8 15.6 10.8Z" fill="white"/>
</svg>
