<svg xmlns="http://www.w3.org/2000/svg" width="24" height="24" fill="none"  xmlns:v="https://vecta.io/nano"><path d="M2.472 13.2a9.6 9.6 0 0 0 6.216 7.812A22.2 22.2 0 0 1 7.224 13.2H2.472zm0-2.4h4.752a22.2 22.2 0 0 1 1.464-7.812A9.6 9.6 0 0 0 2.472 10.8zm19.056 0a9.6 9.6 0 0 0-6.216-7.812 22.2 22.2 0 0 1 1.464 7.812h4.752zm0 2.4h-4.752a22.2 22.2 0 0 1-1.464 7.812 9.6 9.6 0 0 0 6.216-7.812zm-11.904 0c.192 4.74 1.476 8.4 2.376 8.4s2.184-3.66 2.376-8.4H9.624zm0-2.4h4.752C14.184 6.06 12.9 2.4 12 2.4s-2.184 3.66-2.376 8.4zM12 24A12 12 0 0 1 0 12 12 12 0 0 1 12 0a12 12 0 0 1 12 12 12 12 0 0 1-12 12z" fill="#fff"/></svg>