<?xml version="1.0" standalone="no"?>
<!DOCTYPE svg PUBLIC "-//W3C//DTD SVG 20010904//EN"
 "http://www.w3.org/TR/2001/REC-SVG-20010904/DTD/svg10.dtd">
<svg version="1.0" xmlns="http://www.w3.org/2000/svg"
 width="512.000000pt" height="512.000000pt" viewBox="0 0 512.000000 512.000000"
 preserveAspectRatio="xMidYMid meet">

<g transform="translate(0.000000,512.000000) scale(0.100000,-0.100000)"
fill="#000000" stroke="none">
<path d="M415 5110 c-183 -38 -330 -170 -391 -350 -18 -53 -19 -134 -19 -2200
0 -2066 1 -2147 19 -2200 52 -154 168 -274 322 -332 l59 -23 2155 0 2155 0 59
23 c154 58 270 178 322 332 18 53 19 134 19 2200 0 2066 -1 2147 -19 2200 -52
154 -168 274 -322 332 l-59 23 -2130 1 c-1172 1 -2148 -2 -2170 -6z m1482
-1191 c405 -54 729 -285 875 -621 83 -192 113 -380 105 -653 -6 -191 -20 -291
-65 -450 -135 -482 -496 -841 -967 -960 -212 -54 -459 -58 -660 -11 -107 25
-110 26 -125 7 -34 -43 -98 -55 -206 -41 -155 22 -213 77 -238 231 -6 32 -15
41 -89 87 -98 60 -226 167 -267 224 -17 23 -35 58 -42 80 -10 33 -9 41 7 58
26 28 59 26 241 -19 87 -22 159 -39 160 -38 0 1 11 65 23 142 42 264 134 579
263 900 124 309 193 421 281 464 80 39 120 25 151 -49 38 -92 30 -184 -44
-527 -22 -101 -58 -267 -81 -371 -47 -215 -95 -492 -105 -603 -8 -89 -19 -79
121 -105 142 -25 346 -30 425 -10 134 34 244 101 354 214 207 213 316 515 316
874 0 318 -63 521 -205 664 -115 117 -242 163 -442 164 -158 0 -426 -63 -783
-185 -104 -36 -154 -48 -220 -52 -100 -6 -124 5 -122 56 5 171 529 473 917
530 86 12 330 13 422 0z m1848 -1013 c263 -113 245 -108 406 -117 210 -12 296
-35 349 -94 22 -23 25 -35 23 -88 -1 -34 -13 -107 -28 -162 -24 -91 -34 -113
-121 -243 -164 -246 -345 -454 -494 -566 l-61 -45 38 -10 c21 -6 88 -16 149
-23 276 -29 414 50 760 436 52 58 65 67 90 64 23 -2 31 -10 41 -38 28 -83 11
-204 -47 -325 -78 -161 -220 -295 -415 -390 -191 -94 -384 -132 -624 -122
-154 6 -261 32 -380 92 -114 57 -131 96 -111 242 12 85 14 88 64 141 28 30
125 112 216 182 206 159 346 283 395 350 39 53 72 147 57 162 -23 23 -131 25
-443 8 -194 -11 -341 -15 -363 -10 -50 11 -80 32 -107 77 -20 32 -24 51 -24
118 0 69 5 90 32 148 55 117 162 209 282 243 26 8 84 12 136 11 79 -2 101 -7
180 -41z"/>
</g>
</svg>
