<svg width="18" height="18" viewBox="0 0 18 18" fill="none" xmlns="http://www.w3.org/2000/svg">
<path fill-rule="evenodd" clip-rule="evenodd" d="M17.6024 0.727383C17.6918 0.816802 17.7519 0.931214 17.7749 1.05552C17.7979 1.17982 17.7826 1.30817 17.7312 1.42363L10.6599 17.3336C10.6105 17.4449 10.5297 17.5393 10.4273 17.6053C10.325 17.6713 10.2057 17.7059 10.0839 17.705C9.96217 17.7041 9.84335 17.6676 9.74205 17.6001C9.64074 17.5326 9.56136 17.4369 9.51366 17.3249L6.96241 11.3674L1.00366 8.81489C0.892067 8.76689 0.79688 8.68741 0.729741 8.58617C0.662603 8.48493 0.626423 8.36632 0.625628 8.24484C0.624832 8.12336 0.659455 8.00429 0.725261 7.90218C0.791068 7.80007 0.885205 7.71935 0.996161 7.66989L16.9062 0.598633C17.0215 0.547443 17.1496 0.532345 17.2736 0.555325C17.3977 0.578305 17.5118 0.638286 17.6012 0.727383H17.6024Z" fill="white"/>
</svg>
