<svg width="20" height="20" viewBox="0 0 20 20" fill="none" xmlns="http://www.w3.org/2000/svg">
<path d="M18.354 12.854C16.7172 13.5122 14.9231 13.6748 13.1946 13.3217C11.4662 12.9686 9.8796 12.1153 8.6322 10.8678C7.38472 9.6204 6.53139 8.0338 6.17827 6.30535C5.82514 4.5769 5.98779 2.78277 6.64599 1.146C4.7077 1.92673 3.10135 3.35739 2.10232 5.19272C1.10328 7.02805 0.77378 9.1537 1.17031 11.2054C1.56683 13.257 2.66467 15.1069 4.27565 16.4378C5.88662 17.7687 7.91037 18.4977 10 18.5C11.7969 18.5001 13.5527 17.9624 15.0415 16.9562C16.5303 15.95 17.684 14.5213 18.354 12.854Z" stroke="#A0AEC0" stroke-width="2" stroke-linecap="round" stroke-linejoin="round"/>
</svg>
