<svg width="30" height="29" viewBox="0 0 30 29" fill="none" xmlns="http://www.w3.org/2000/svg">
<path d="M19.375 7.20843C20.1485 7.20843 20.8904 7.51573 21.4374 8.06271C21.9844 8.60969 22.2917 9.35155 22.2917 10.1251L19.375 7.20843ZM28.125 10.1251C28.1254 11.4918 27.8056 12.8396 27.1914 14.0605C26.5771 15.2813 25.6854 16.3414 24.5877 17.1556C23.4898 17.9697 22.2167 18.5155 20.8701 18.7489C19.5235 18.9826 18.141 18.8974 16.8331 18.5003L13.5417 21.7917H10.625V24.7084H7.70833V27.6251H3.33333C2.94655 27.6251 2.57563 27.4715 2.30213 27.1979C2.02865 26.9245 1.875 26.5535 1.875 26.1667V22.3955C1.87509 22.0087 2.02878 21.6379 2.30229 21.3644L10.9998 12.667C10.6359 11.4639 10.5354 10.1965 10.7053 8.95107C10.8751 7.70565 11.3113 6.51145 11.9842 5.44976C12.657 4.38806 13.5507 3.48378 14.6044 2.79847C15.658 2.11317 16.847 1.66291 18.0904 1.47837C19.3336 1.29382 20.6022 1.37932 21.8094 1.72903C23.0168 2.07874 24.1346 2.68445 25.0867 3.50496C26.039 4.32546 26.8032 5.34148 27.3274 6.48385C27.8519 7.62623 28.1238 8.86816 28.125 10.1251Z" stroke="#A0AEC0" stroke-width="2" stroke-linecap="round" stroke-linejoin="round"/>
</svg>
