<svg width="24" height="29" viewBox="0 0 24 29" fill="none" xmlns="http://www.w3.org/2000/svg">
<path d="M17.8332 7.20833C17.8332 8.75544 17.2186 10.2392 16.1246 11.3331C15.0307 12.4271 13.547 13.0417 11.9998 13.0417C10.4527 13.0417 8.96902 12.4271 7.87505 11.3331C6.78109 10.2392 6.16651 8.75544 6.16651 7.20833C6.16651 5.66123 6.78109 4.17751 7.87505 3.08354C8.96902 1.98959 10.4527 1.375 11.9998 1.375C13.547 1.375 15.0307 1.98959 16.1246 3.08354C17.2186 4.17751 17.8332 5.66123 17.8332 7.20833ZM11.9998 17.4167C9.29244 17.4167 6.6959 18.4922 4.78145 20.4067C2.86703 22.321 1.7915 24.9176 1.7915 27.625H22.2082C22.2082 24.9176 21.1327 22.321 19.2182 20.4067C17.3038 18.4922 14.7072 17.4167 11.9998 17.4167Z" stroke="#3B9795" stroke-width="2" stroke-linecap="round" stroke-linejoin="round"/>
</svg>
