<svg width="29" height="30" viewBox="0 0 29 30" fill="none" xmlns="http://www.w3.org/2000/svg">
<path d="M8.99917 10.625C9.79979 8.92604 11.9596 7.70833 14.5 7.70833C17.7229 7.70833 20.3333 9.66688 20.3333 12.0833C20.3333 14.125 18.4696 15.8385 15.9496 16.3227C15.1592 16.4744 14.5 17.1102 14.5 17.9167M14.5 22.2917H14.5146M27.625 15C27.625 16.7236 27.2855 18.4303 26.6259 20.0227C25.9663 21.6151 24.9995 23.062 23.7808 24.2808C22.562 25.4995 21.1151 26.4663 19.5227 27.1259C17.9303 27.7855 16.2236 28.125 14.5 28.125C12.7764 28.125 11.0697 27.7855 9.47728 27.1259C7.88488 26.4663 6.43799 25.4995 5.21922 24.2808C4.00045 23.062 3.03367 21.6151 2.37408 20.0227C1.71449 18.4303 1.375 16.7236 1.375 15C1.375 11.519 2.75781 8.18064 5.21922 5.71922C7.68064 3.25781 11.019 1.875 14.5 1.875C17.981 1.875 21.3194 3.25781 23.7808 5.71922C26.2422 8.18064 27.625 11.519 27.625 15Z" stroke="#A0AEC0" stroke-width="2" stroke-linecap="round" stroke-linejoin="round"/>
</svg>
