<svg width="29" height="29" viewBox="0 0 29 29" fill="none" xmlns="http://www.w3.org/2000/svg">
<path d="M21.7917 7.16665H24.7083C25.4819 7.16665 26.2237 7.47394 26.7707 8.02092C27.3177 8.5679 27.625 9.30977 27.625 10.0833V18.8333C27.625 19.6069 27.3177 20.3487 26.7707 20.8957C26.2237 21.4427 25.4819 21.75 24.7083 21.75H21.7917V27.5833L15.9583 21.75H10.125C9.74194 21.7504 9.36257 21.6751 9.00869 21.5284C8.65482 21.3818 8.3334 21.1666 8.06292 20.8954M8.06292 20.8954L13.0417 15.9166H18.875C19.6485 15.9166 20.3904 15.6094 20.9374 15.0624C21.4844 14.5154 21.7917 13.7735 21.7917 13V4.24998C21.7917 3.47643 21.4844 2.73457 20.9374 2.18758C20.3904 1.6406 19.6485 1.33331 18.875 1.33331H4.29167C3.51812 1.33331 2.77625 1.6406 2.22927 2.18758C1.68229 2.73457 1.375 3.47643 1.375 4.24998V13C1.375 13.7735 1.68229 14.5154 2.22927 15.0624C2.77625 15.6094 3.51812 15.9166 4.29167 15.9166H7.20833V21.75L8.06292 20.8954Z" stroke="#A0AEC0" stroke-width="2" stroke-linecap="round" stroke-linejoin="round"/>
</svg>
